<svg xmlns:dc="http://purl.org/dc/elements/1.1/" xmlns:cc="http://creativecommons.org/ns#" xmlns:rdf="http://www.w3.org/1999/02/22-rdf-syntax-ns#" xmlns:svg="http://www.w3.org/2000/svg" xmlns="http://www.w3.org/2000/svg" xmlns:xlink="http://www.w3.org/1999/xlink" id="svg89918" viewBox="0 0 1024 768" height="768px" width="1024px" version="1.1">
  <metadata id="metadata89924">
    <rdf:rdf>
      <cc:work rdf:about="">
        <dc:format>image/svg+xml</dc:format>
        <dc:type rdf:resource="http://purl.org/dc/dcmitype/StillImage"></dc:type>
      </cc:work>
    </rdf:rdf>
  </metadata>
  <defs id="defs89922"></defs>
  <linearGradient spreadMethod="pad" y2="30%" x2="-10%" y1="120%" x1="30%" id="3d_gradient2-logo-4818c0f1-e985-4a39-afa5-5d33c81a9bb1">
    <stop id="stop89899" stop-opacity="1" stop-color="#ffffff" offset="0%"></stop>
    <stop id="stop89901" stop-opacity="1" stop-color="#000000" offset="100%"></stop>
  </linearGradient>
  <linearGradient gradientTransform="rotate(-30)" spreadMethod="pad" y2="30%" x2="-10%" y1="120%" x1="30%" id="3d_gradient3-logo-4818c0f1-e985-4a39-afa5-5d33c81a9bb1">
    <stop id="stop89904" stop-opacity="1" stop-color="#ffffff" offset="0%"></stop>
    <stop id="stop89906" stop-opacity="1" stop-color="#cccccc" offset="50%"></stop>
    <stop id="stop89908" stop-opacity="1" stop-color="#000000" offset="100%"></stop>
  </linearGradient>
  <g id="logo-group">
    <image xlink:href="" id="container" x="272" y="144" width="480" height="480" transform="translate(0 0)" style="display: none;"></image>
    <g id="logo-center" transform="translate(5.684341886080802e-14 0)">
      <image xlink:href="" id="icon_container" x="0" y="0" style="display: none;"></image>
      <g id="slogan" style="font-style:normal;font-weight:300;font-size:32px;line-height:1;font-family:'Open Sans';font-variant-ligatures:none;text-align:center;text-anchor:middle" transform="translate(0 0)"></g>
      <g id="title" style="font-style:normal;font-weight:300;font-size:72px;line-height:1;font-family:'Montserrat Light Alt1';font-variant-ligatures:none;text-align:center;text-anchor:middle" transform="translate(0 0)">
        <path id="path89927" style="font-style:normal;font-weight:300;font-size:72px;line-height:1;font-family:'Montserrat Light Alt1';font-variant-ligatures:none;text-align:center;text-anchor:middle" d="m 355.1975,-45.864 c -3.6,-3.024 -8.568,-4.536 -14.904,-4.536 h -18.072 v 3.312 h 18.072 c 5.328,0 9.432,1.224 12.312,3.6 2.808,2.376 4.248,5.76 4.248,10.08 0,4.392 -1.44,7.776 -4.248,10.08 -2.88,2.376 -6.984,3.528 -12.312,3.528 h -18.072 V 0 h 3.672 v -16.488 h 14.4 c 6.336,0 11.304,-1.44 14.904,-4.464 3.6,-3.024 5.4,-7.128 5.4,-12.456 0,-5.256 -1.8,-9.432 -5.4,-12.456 z" stroke-width="0" stroke-linejoin="miter" stroke-miterlimit="2" fill="#5d55d5" stroke="#5d55d5" transform="translate(0 307.108) translate(276.63762499999996 53.024) scale(1) translate(-322.2215 50.4)"></path>
        <path id="path89929" style="font-style:normal;font-weight:300;font-size:72px;line-height:1;font-family:'Montserrat Light Alt1';font-variant-ligatures:none;text-align:center;text-anchor:middle" d="m 379.56612,-35.64 c -2.44799,1.44 -4.248,3.528 -5.39999,6.264 v -8.208 h -3.45601 V 0 h 3.6 v -19.584 c 0,-4.608 1.15201,-8.28 3.528,-10.872 2.30401,-2.592 5.616,-3.96 9.79201,-3.96 l 0.86399,0.072 v -3.528 c -3.528,0 -6.48,0.792 -8.928,2.232 z" stroke-width="0" stroke-linejoin="miter" stroke-miterlimit="2" fill="#6c57cd" stroke="#6c57cd" transform="translate(0 307.108) translate(335.126245 65.55199999999999) scale(1) translate(-370.71012 37.872)"></path>
        <path id="path89931" style="font-style:normal;font-weight:300;font-size:72px;line-height:1;font-family:'Montserrat Light Alt1';font-variant-ligatures:none;text-align:center;text-anchor:middle" d="M 398.41325,-37.584 V 0 h 3.6 v -37.584 z m -0.288,-9.936 c 0.576,0.576 1.224,0.792 2.088,0.792 0.792,0 1.512,-0.288 2.088,-0.864 0.576,-0.576 0.864,-1.224 0.864,-2.088 0,-0.792 -0.288,-1.44 -0.864,-2.016 -0.576,-0.576 -1.296,-0.864 -2.088,-0.864 -0.864,0 -1.512,0.288 -2.088,0.864 -0.576,0.576 -0.864,1.296 -0.864,2.088 0,0.864 0.288,1.512 0.864,2.088 z" stroke-width="0" stroke-linejoin="miter" stroke-miterlimit="2" fill="#7b58c5" stroke="#7b58c5" transform="translate(0 307.108) translate(371.677375 50.864) scale(1) translate(-397.26125 52.56)"></path>
        <path id="path89933" style="font-style:normal;font-weight:300;font-size:72px;line-height:1;font-family:'Montserrat Light Alt1';font-variant-ligatures:none;text-align:center;text-anchor:middle" d="m 447.425,-37.584 h -3.672 l -15.12,33.624 -14.976,-33.624 h -3.816 L 426.761,0 h 3.672 z" stroke-width="0" stroke-linejoin="miter" stroke-miterlimit="2" fill="#8a5abd" stroke="#8a5abd" transform="translate(0 307.108) translate(394.257125 65.84) scale(1) translate(-409.841 37.584)"></path>
        <path id="path89935" style="font-style:normal;font-weight:300;font-size:72px;line-height:1;font-family:'Montserrat Light Alt1';font-variant-ligatures:none;text-align:center;text-anchor:middle" d="m 477.50075,-34.272 c -2.52,-2.376 -6.12,-3.6 -10.728,-3.6 -2.88,0 -5.688,0.504 -8.28,1.44 -2.664,0.936 -4.896,2.232 -6.768,3.888 l 1.8,2.592 c 1.584,-1.44 3.456,-2.592 5.76,-3.456 2.304,-0.864 4.68,-1.296 7.2,-1.296 3.6,0 6.408,0.936 8.28,2.736 1.872,1.872 2.88,4.536 2.88,7.992 v 3.024 h -12.888 c -4.896,0 -8.496,1.008 -10.728,2.952 -2.232,1.944 -3.312,4.464 -3.312,7.56 0,3.24 1.152,5.832 3.6,7.776 2.448,2.016 5.76,2.952 9.936,2.952 3.168,0 5.976,-0.576 8.28,-1.8 2.304,-1.224 4.032,-2.952 5.256,-5.184 V 0 h 3.456 v -23.832 c 0,-4.608 -1.296,-8.064 -3.744,-10.44 z m -4.824,29.448 c -2.16,1.44 -4.824,2.16 -7.92,2.16 -3.312,0 -5.904,-0.648 -7.704,-2.088 -1.872,-1.44 -2.736,-3.384 -2.736,-5.832 0,-2.304 0.792,-4.176 2.448,-5.544 1.656,-1.296 4.32,-2.016 8.064,-2.016 h 12.816 v 7.056 c -1.152,2.736 -2.808,4.824 -4.968,6.264 z" stroke-width="0" stroke-linejoin="miter" stroke-miterlimit="2" fill="#995bb5" stroke="#995bb5" transform="translate(0 307.108) translate(445.13287499999996 65.55199999999999) scale(1) translate(-450.71675 37.872)"></path>
        <path id="path89937" style="font-style:normal;font-weight:300;font-size:72px;line-height:1;font-family:'Montserrat Light Alt1';font-variant-ligatures:none;text-align:center;text-anchor:middle" d="m 533.29962,-24.984 v 17.352 c -3.816,3.096 -8.568,4.608 -14.32799,4.608 -4.32001,0 -8.20801,-0.936 -11.664,-2.88 -3.456,-1.944 -6.192,-4.608 -8.20801,-7.992 -2.016,-3.384 -2.952,-7.128 -2.952,-11.304 0,-4.176 0.936,-7.92 2.952,-11.304 1.94401,-3.384 4.68,-6.048 8.13601,-7.992 3.45599,-1.872 7.41599,-2.88 11.736,-2.88 3.168,0 6.048,0.504 8.63999,1.44 2.592,0.936 4.968,2.448 7.12801,4.536 l 2.304,-2.448 c -2.232,-2.232 -4.89601,-3.96 -7.992,-5.112 -3.096,-1.152 -6.48,-1.8 -10.152,-1.8 -5.04,0 -9.57601,1.152 -13.60801,3.312 -4.03199,2.232 -7.12799,5.256 -9.432,9.144 -2.30399,3.888 -3.384,8.28 -3.384,13.104 0,4.896 1.08001,9.216 3.384,13.104 2.30401,3.888 5.40001,6.984 9.432,9.144 4.032,2.232 8.49601,3.312 13.536,3.312 3.45601,0 6.76801,-0.504 9.93601,-1.656 3.16799,-1.08 5.832,-2.664 8.06399,-4.824 v -18.864 z" stroke-width="0" stroke-linejoin="miter" stroke-miterlimit="2" fill="#a85dae" stroke="#a85dae" transform="translate(0 307.108) translate(496.89174499999996 52.664) scale(1) translate(-492.47562 50.76)"></path>
        <path id="path89939" style="font-style:normal;font-weight:300;font-size:72px;line-height:1;font-family:'Montserrat Light Alt1';font-variant-ligatures:none;text-align:center;text-anchor:middle" d="m 584.73913,-37.584 h -3.6 v 20.016 c 0,4.464 -1.29601,8.064 -3.74401,10.656 -2.44799,2.664 -5.83199,3.96 -10.008,3.96 -3.95999,0 -6.98399,-1.08 -9.144,-3.312 -2.16,-2.16 -3.24,-5.4 -3.24,-9.648 v -21.672 h -3.59999 v 21.96 c 0,5.184 1.36799,9.072 4.17599,11.808 2.736,2.736 6.624,4.104 11.52,4.104 3.312,0 6.192,-0.72 8.64001,-2.16 2.448,-1.44 4.24799,-3.528 5.544,-6.192 V 0 h 3.456 z" stroke-width="0" stroke-linejoin="miter" stroke-miterlimit="2" fill="#b75ea6" stroke="#b75ea6" transform="translate(0 307.108) translate(565.819255 65.84) scale(1) translate(-551.40313 37.584)"></path>
        <path id="path89941" style="font-style:normal;font-weight:300;font-size:72px;line-height:1;font-family:'Montserrat Light Alt1';font-variant-ligatures:none;text-align:center;text-anchor:middle" d="m 623.4695,-34.272 c -2.52,-2.376 -6.12,-3.6 -10.728,-3.6 -2.88,0 -5.688,0.504 -8.28,1.44 -2.664,0.936 -4.896,2.232 -6.768,3.888 l 1.8,2.592 c 1.584,-1.44 3.456,-2.592 5.76,-3.456 2.304,-0.864 4.68,-1.296 7.2,-1.296 3.6,0 6.408,0.936 8.28,2.736 1.872,1.872 2.88,4.536 2.88,7.992 v 3.024 h -12.888 c -4.896,0 -8.496,1.008 -10.728,2.952 -2.232,1.944 -3.312,4.464 -3.312,7.56 0,3.24 1.152,5.832 3.6,7.776 2.448,2.016 5.76,2.952 9.936,2.952 3.168,0 5.976,-0.576 8.28,-1.8 2.304,-1.224 4.032,-2.952 5.256,-5.184 V 0 h 3.456 v -23.832 c 0,-4.608 -1.296,-8.064 -3.744,-10.44 z m -4.824,29.448 c -2.16,1.44 -4.824,2.16 -7.92,2.16 -3.312,0 -5.904,-0.648 -7.704,-2.088 -1.872,-1.44 -2.736,-3.384 -2.736,-5.832 0,-2.304 0.792,-4.176 2.448,-5.544 1.656,-1.296 4.32,-2.016 8.064,-2.016 h 12.816 v 7.056 c -1.152,2.736 -2.808,4.824 -4.968,6.264 z" stroke-width="0" stroke-linejoin="miter" stroke-miterlimit="2" fill="#c6609e" stroke="#c6609e" transform="translate(0 307.108) translate(621.101625 65.55199999999999) scale(1) translate(-596.6855 37.872)"></path>
        <path id="path89943" style="font-style:normal;font-weight:300;font-size:72px;line-height:1;font-family:'Montserrat Light Alt1';font-variant-ligatures:none;text-align:center;text-anchor:middle" d="m 650.97238,-35.64 c -2.44801,1.44 -4.24801,3.528 -5.40001,6.264 v -8.208 h -3.456 V 0 h 3.6 v -19.584 c 0,-4.608 1.15201,-8.28 3.528,-10.872 2.304,-2.592 5.616,-3.96 9.79201,-3.96 l 0.86399,0.072 v -3.528 c -3.52799,0 -6.47999,0.792 -8.92799,2.232 z" stroke-width="0" stroke-linejoin="miter" stroke-miterlimit="2" fill="#d56196" stroke="#d56196" transform="translate(0 307.108) translate(676.5324949999999 65.55199999999999) scale(1) translate(-642.11637 37.872)"></path>
        <path id="path89945" style="font-style:normal;font-weight:300;font-size:72px;line-height:1;font-family:'Montserrat Light Alt1';font-variant-ligatures:none;text-align:center;text-anchor:middle" d="m 702.94625,-53.424 h -3.6 v 24.552 c -1.584,-2.808 -3.672,-5.04 -6.336,-6.624 -2.664,-1.584 -5.688,-2.376 -9,-2.376 -3.528,0 -6.696,0.864 -9.504,2.448 -2.88,1.584 -5.112,3.888 -6.696,6.768 -1.584,2.88 -2.376,6.192 -2.376,9.864 0,3.744 0.792,6.984 2.376,9.864 1.584,2.88 3.816,5.184 6.696,6.768 2.808,1.656 5.976,2.448 9.504,2.448 3.384,0 6.408,-0.792 9.144,-2.376 2.664,-1.584 4.752,-3.816 6.264,-6.768 V 0 h 3.528 z m -11.016,48.456 c -2.304,1.368 -4.824,2.016 -7.704,2.016 -2.88,0 -5.472,-0.648 -7.776,-2.016 -2.304,-1.296 -4.104,-3.168 -5.4,-5.616 -1.296,-2.376 -1.944,-5.112 -1.944,-8.208 0,-3.024 0.648,-5.76 1.944,-8.208 1.296,-2.376 3.096,-4.248 5.4,-5.616 2.304,-1.296 4.896,-2.016 7.776,-2.016 2.88,0 5.4,0.72 7.704,2.016 2.304,1.368 4.104,3.24 5.4,5.616 1.296,2.448 2.016,5.184 2.016,8.208 0,3.096 -0.72,5.832 -2.016,8.208 -1.296,2.448 -3.096,4.32 -5.4,5.616 z" stroke-width="0" stroke-linejoin="miter" stroke-miterlimit="2" fill="#e4638e" stroke="#e4638e" transform="translate(0 307.108) translate(709.850375 50) scale(1) translate(-665.43425 53.424)"></path>
      </g>
      <image xlink:href="" id="icon" x="0" y="0" style="display: none;"></image>
    </g>
  </g>
</svg>